<svg fill="#142b54" xmlns="http://www.w3.org/2000/svg"  viewBox="0 0 48 48" width="144px" height="144px"><path d="M 15.119141 5 L 11.849609 8.2695312 L 16.380859 8.609375 L 17.789062 5.25 L 17.689453 5 L 15.119141 5 z M 19.849609 5 L 24 15.689453 L 28.150391 5 L 28.140625 5 L 19.859375 5 L 19.849609 5 z M 30.310547 5 L 30.210938 5.25 L 31.619141 8.609375 L 36.150391 8.2695312 L 32.880859 5 L 30.310547 5 z M 18.839844 7.9101562 L 17.660156 10.720703 L 12.820312 10.339844 L 18.830078 21 L 22.529297 21 L 22.529297 17.439453 L 18.839844 7.9101562 z M 29.160156 7.9101562 L 25.470703 17.439453 L 25.470703 21 L 29.169922 21 L 35.179688 10.339844 L 35.189453 10.330078 L 30.339844 10.710938 L 29.160156 7.9101562 z M 7 9.8691406 L 8.4902344 16.109375 L 13.419922 17.900391 L 15.169922 19.640625 L 15.929688 19.919922 L 10.419922 10.150391 L 7 9.8691406 z M 41 9.8691406 L 37.589844 10.140625 L 32.070312 19.919922 L 32.830078 19.640625 L 34.580078 17.900391 L 39.509766 16.109375 L 41 9.8691406 z M 9.0703125 18.439453 L 9.0703125 28.490234 L 15.009766 33.429688 L 15.009766 26.070312 L 17.480469 22.660156 L 17.369141 22.470703 L 15.570312 22.869141 L 12.320312 19.619141 L 9.0703125 18.439453 z M 38.929688 18.439453 L 35.679688 19.619141 L 32.429688 22.869141 L 30.630859 22.470703 L 30.529297 22.650391 L 30.529297 22.660156 L 33 26.070312 L 33 33.429688 L 38.929688 28.490234 L 38.929688 18.439453 z M 19.960938 23 L 24 30.150391 L 28.039062 23 L 19.960938 23 z M 29.449219 24.570312 L 24 34.220703 L 18.560547 24.580078 L 17.009766 26.710938 L 17.009766 38.369141 L 18.689453 41.359375 L 21.019531 43.5 L 26.990234 43.5 L 29.320312 41.359375 L 31 38.369141 L 31 26.710938 L 29.449219 24.570312 z M 12.320312 33.800781 L 12.320312 36.169922 L 15.009766 38.859375 L 15.009766 36.039062 L 12.320312 33.800781 z M 35.380859 34.050781 L 33 36.029297 L 33 38.560547 L 35.380859 36.169922 L 35.380859 34.050781 z"/></svg>